G04 #@! TF.GenerationSoftware,KiCad,Pcbnew,5.1.9-73d0e3b20d~88~ubuntu20.04.1*
G04 #@! TF.CreationDate,2021-03-19T21:26:38+02:00*
G04 #@! TF.ProjectId,QuickFeather-Enviroment-Monitor,51756963-6b46-4656-9174-6865722d456e,rev?*
G04 #@! TF.SameCoordinates,Original*
G04 #@! TF.FileFunction,Copper,L1,Top*
G04 #@! TF.FilePolarity,Positive*
%FSLAX46Y46*%
G04 Gerber Fmt 4.6, Leading zero omitted, Abs format (unit mm)*
G04 Created by KiCad (PCBNEW 5.1.9-73d0e3b20d~88~ubuntu20.04.1) date 2021-03-19 21:26:38*
%MOMM*%
%LPD*%
G01*
G04 APERTURE LIST*
G04 #@! TA.AperFunction,ComponentPad*
%ADD10O,2.000000X1.200000*%
G04 #@! TD*
G04 #@! TA.AperFunction,ComponentPad*
%ADD11O,1.200000X2.000000*%
G04 #@! TD*
G04 #@! TA.AperFunction,ComponentPad*
%ADD12O,1.700000X1.700000*%
G04 #@! TD*
G04 #@! TA.AperFunction,ComponentPad*
%ADD13R,1.700000X1.700000*%
G04 #@! TD*
G04 #@! TA.AperFunction,ComponentPad*
%ADD14C,3.302000*%
G04 #@! TD*
G04 #@! TA.AperFunction,SMDPad,CuDef*
%ADD15C,0.250000*%
G04 #@! TD*
G04 #@! TA.AperFunction,SMDPad,CuDef*
%ADD16R,1.060000X0.650000*%
G04 #@! TD*
G04 #@! TA.AperFunction,SMDPad,CuDef*
%ADD17R,1.800000X2.500000*%
G04 #@! TD*
G04 #@! TA.AperFunction,SMDPad,CuDef*
%ADD18R,6.350000X7.340000*%
G04 #@! TD*
G04 #@! TA.AperFunction,ComponentPad*
%ADD19C,1.600000*%
G04 #@! TD*
G04 #@! TA.AperFunction,ComponentPad*
%ADD20R,1.600000X1.600000*%
G04 #@! TD*
G04 #@! TA.AperFunction,SMDPad,CuDef*
%ADD21R,0.650000X1.060000*%
G04 #@! TD*
G04 #@! TA.AperFunction,ViaPad*
%ADD22C,0.800000*%
G04 #@! TD*
G04 #@! TA.AperFunction,ViaPad*
%ADD23C,0.600000*%
G04 #@! TD*
G04 #@! TA.AperFunction,Conductor*
%ADD24C,0.500000*%
G04 #@! TD*
G04 #@! TA.AperFunction,Conductor*
%ADD25C,1.000000*%
G04 #@! TD*
G04 #@! TA.AperFunction,Conductor*
%ADD26C,1.500000*%
G04 #@! TD*
G04 #@! TA.AperFunction,Conductor*
%ADD27C,0.750000*%
G04 #@! TD*
G04 #@! TA.AperFunction,Conductor*
%ADD28C,0.250000*%
G04 #@! TD*
G04 #@! TA.AperFunction,Conductor*
%ADD29C,0.200000*%
G04 #@! TD*
G04 #@! TA.AperFunction,Conductor*
%ADD30C,0.100000*%
G04 #@! TD*
G04 #@! TA.AperFunction,Conductor*
%ADD31C,0.254000*%
G04 #@! TD*
G04 APERTURE END LIST*
D10*
X91540000Y-37200000D03*
X94080000Y-39740000D03*
X94080000Y-37200000D03*
X91540000Y-39740000D03*
X91540000Y-42280000D03*
X94080000Y-44820000D03*
X94080000Y-42280000D03*
X91540000Y-44820000D03*
X91540000Y-47360000D03*
X94080000Y-49900000D03*
X94080000Y-47360000D03*
X91540000Y-49900000D03*
X94080000Y-54980000D03*
X94080000Y-52440000D03*
X91540000Y-54980000D03*
X91540000Y-52440000D03*
D11*
X76300000Y-37200000D03*
X83920000Y-37200000D03*
X68680000Y-37200000D03*
X73760000Y-37200000D03*
X71220000Y-37200000D03*
X81380000Y-37200000D03*
X66140000Y-37200000D03*
X58520000Y-37200000D03*
X61060000Y-37200000D03*
X78840000Y-37200000D03*
X63600000Y-37200000D03*
X55980000Y-37200000D03*
X83920000Y-57520000D03*
X81380000Y-57520000D03*
X78840000Y-57520000D03*
X76300000Y-57520000D03*
X73760000Y-57520000D03*
X71220000Y-57520000D03*
X68680000Y-57520000D03*
X66140000Y-57520000D03*
X63600000Y-57520000D03*
X61060000Y-57520000D03*
X58520000Y-57520000D03*
X55980000Y-57520000D03*
X53440000Y-57520000D03*
X50900000Y-57520000D03*
X48360000Y-57520000D03*
X45820000Y-57520000D03*
D12*
X46994000Y-89942000D03*
X44454000Y-89942000D03*
X52074000Y-89942000D03*
X41914000Y-89942000D03*
X39374000Y-89942000D03*
X36834000Y-89942000D03*
D13*
X54614000Y-89942000D03*
D12*
X49534000Y-89942000D03*
X36834000Y-67082000D03*
X39374000Y-67082000D03*
X41914000Y-67082000D03*
X44454000Y-67082000D03*
X46994000Y-67082000D03*
X49534000Y-67082000D03*
X52074000Y-67082000D03*
D13*
X54614000Y-67082000D03*
D12*
X79308000Y-110944000D03*
X79308000Y-108404000D03*
X79308000Y-116024000D03*
X79308000Y-105864000D03*
X79308000Y-103324000D03*
X79308000Y-100784000D03*
D13*
X79308000Y-118564000D03*
D12*
X79308000Y-113484000D03*
X102168000Y-100764000D03*
X102168000Y-103304000D03*
X102168000Y-105844000D03*
X102168000Y-108384000D03*
X102168000Y-110924000D03*
X102168000Y-113464000D03*
X102168000Y-116004000D03*
D13*
X102168000Y-118544000D03*
D12*
X79308000Y-79344000D03*
X79308000Y-76804000D03*
X79308000Y-84424000D03*
X79308000Y-74264000D03*
X79308000Y-71724000D03*
X79308000Y-69184000D03*
D13*
X79308000Y-86964000D03*
D12*
X79308000Y-81884000D03*
X102168000Y-69164000D03*
X102168000Y-71704000D03*
X102168000Y-74244000D03*
X102168000Y-76784000D03*
X102168000Y-79324000D03*
X102168000Y-81864000D03*
X102168000Y-84404000D03*
D13*
X102168000Y-86944000D03*
D14*
X36014000Y-110176000D03*
X36014000Y-100176000D03*
D15*
X34980000Y-69400000D03*
X34480000Y-69400000D03*
X34480000Y-69900000D03*
X34980000Y-69900000D03*
X99580000Y-66620000D03*
X99080000Y-66620000D03*
X99080000Y-67120000D03*
X99580000Y-67120000D03*
X99580000Y-98330000D03*
X99080000Y-98330000D03*
X99080000Y-98830000D03*
X99580000Y-98830000D03*
X44690000Y-97260000D03*
X44190000Y-97260000D03*
X44190000Y-97760000D03*
X44690000Y-97760000D03*
D16*
X107200000Y-126570000D03*
X107200000Y-124670000D03*
X109400000Y-124670000D03*
X109400000Y-125620000D03*
X109400000Y-126570000D03*
D17*
X46800000Y-122380000D03*
X46800000Y-126380000D03*
D18*
X117300000Y-40070000D03*
X117300000Y-118730000D03*
D19*
X42560000Y-124500000D03*
D20*
X40060000Y-124500000D03*
G04 #@! TA.AperFunction,SMDPad,CuDef*
G36*
G01*
X108670000Y-129120001D02*
X108670000Y-128219999D01*
G75*
G02*
X108919999Y-127970000I249999J0D01*
G01*
X109445001Y-127970000D01*
G75*
G02*
X109695000Y-128219999I0J-249999D01*
G01*
X109695000Y-129120001D01*
G75*
G02*
X109445001Y-129370000I-249999J0D01*
G01*
X108919999Y-129370000D01*
G75*
G02*
X108670000Y-129120001I0J249999D01*
G01*
G37*
G04 #@! TD.AperFunction*
G04 #@! TA.AperFunction,SMDPad,CuDef*
G36*
G01*
X106845000Y-129120001D02*
X106845000Y-128219999D01*
G75*
G02*
X107094999Y-127970000I249999J0D01*
G01*
X107620001Y-127970000D01*
G75*
G02*
X107870000Y-128219999I0J-249999D01*
G01*
X107870000Y-129120001D01*
G75*
G02*
X107620001Y-129370000I-249999J0D01*
G01*
X107094999Y-129370000D01*
G75*
G02*
X106845000Y-129120001I0J249999D01*
G01*
G37*
G04 #@! TD.AperFunction*
G04 #@! TA.AperFunction,SMDPad,CuDef*
G36*
G01*
X117100000Y-125750001D02*
X117100000Y-124849999D01*
G75*
G02*
X117349999Y-124600000I249999J0D01*
G01*
X117875001Y-124600000D01*
G75*
G02*
X118125000Y-124849999I0J-249999D01*
G01*
X118125000Y-125750001D01*
G75*
G02*
X117875001Y-126000000I-249999J0D01*
G01*
X117349999Y-126000000D01*
G75*
G02*
X117100000Y-125750001I0J249999D01*
G01*
G37*
G04 #@! TD.AperFunction*
G04 #@! TA.AperFunction,SMDPad,CuDef*
G36*
G01*
X115275000Y-125750001D02*
X115275000Y-124849999D01*
G75*
G02*
X115524999Y-124600000I249999J0D01*
G01*
X116050001Y-124600000D01*
G75*
G02*
X116300000Y-124849999I0J-249999D01*
G01*
X116300000Y-125750001D01*
G75*
G02*
X116050001Y-126000000I-249999J0D01*
G01*
X115524999Y-126000000D01*
G75*
G02*
X115275000Y-125750001I0J249999D01*
G01*
G37*
G04 #@! TD.AperFunction*
G04 #@! TA.AperFunction,SMDPad,CuDef*
G36*
G01*
X121750000Y-125756250D02*
X121750000Y-124843750D01*
G75*
G02*
X121993750Y-124600000I243750J0D01*
G01*
X122481250Y-124600000D01*
G75*
G02*
X122725000Y-124843750I0J-243750D01*
G01*
X122725000Y-125756250D01*
G75*
G02*
X122481250Y-126000000I-243750J0D01*
G01*
X121993750Y-126000000D01*
G75*
G02*
X121750000Y-125756250I0J243750D01*
G01*
G37*
G04 #@! TD.AperFunction*
G04 #@! TA.AperFunction,SMDPad,CuDef*
G36*
G01*
X119875000Y-125756250D02*
X119875000Y-124843750D01*
G75*
G02*
X120118750Y-124600000I243750J0D01*
G01*
X120606250Y-124600000D01*
G75*
G02*
X120850000Y-124843750I0J-243750D01*
G01*
X120850000Y-125756250D01*
G75*
G02*
X120606250Y-126000000I-243750J0D01*
G01*
X120118750Y-126000000D01*
G75*
G02*
X119875000Y-125756250I0J243750D01*
G01*
G37*
G04 #@! TD.AperFunction*
G04 #@! TA.AperFunction,SMDPad,CuDef*
G36*
G01*
X50425000Y-125740000D02*
X49475000Y-125740000D01*
G75*
G02*
X49225000Y-125490000I0J250000D01*
G01*
X49225000Y-124990000D01*
G75*
G02*
X49475000Y-124740000I250000J0D01*
G01*
X50425000Y-124740000D01*
G75*
G02*
X50675000Y-124990000I0J-250000D01*
G01*
X50675000Y-125490000D01*
G75*
G02*
X50425000Y-125740000I-250000J0D01*
G01*
G37*
G04 #@! TD.AperFunction*
G04 #@! TA.AperFunction,SMDPad,CuDef*
G36*
G01*
X50425000Y-127640000D02*
X49475000Y-127640000D01*
G75*
G02*
X49225000Y-127390000I0J250000D01*
G01*
X49225000Y-126890000D01*
G75*
G02*
X49475000Y-126640000I250000J0D01*
G01*
X50425000Y-126640000D01*
G75*
G02*
X50675000Y-126890000I0J-250000D01*
G01*
X50675000Y-127390000D01*
G75*
G02*
X50425000Y-127640000I-250000J0D01*
G01*
G37*
G04 #@! TD.AperFunction*
G04 #@! TA.AperFunction,SMDPad,CuDef*
G36*
G01*
X106850000Y-122025000D02*
X106850000Y-122975000D01*
G75*
G02*
X106600000Y-123225000I-250000J0D01*
G01*
X106100000Y-123225000D01*
G75*
G02*
X105850000Y-122975000I0J250000D01*
G01*
X105850000Y-122025000D01*
G75*
G02*
X106100000Y-121775000I250000J0D01*
G01*
X106600000Y-121775000D01*
G75*
G02*
X106850000Y-122025000I0J-250000D01*
G01*
G37*
G04 #@! TD.AperFunction*
G04 #@! TA.AperFunction,SMDPad,CuDef*
G36*
G01*
X108750000Y-122025000D02*
X108750000Y-122975000D01*
G75*
G02*
X108500000Y-123225000I-250000J0D01*
G01*
X108000000Y-123225000D01*
G75*
G02*
X107750000Y-122975000I0J250000D01*
G01*
X107750000Y-122025000D01*
G75*
G02*
X108000000Y-121775000I250000J0D01*
G01*
X108500000Y-121775000D01*
G75*
G02*
X108750000Y-122025000I0J-250000D01*
G01*
G37*
G04 #@! TD.AperFunction*
D21*
X86060000Y-67310000D03*
X84160000Y-67310000D03*
X84160000Y-65110000D03*
X85110000Y-65110000D03*
X86060000Y-65110000D03*
G04 #@! TA.AperFunction,SMDPad,CuDef*
G36*
G01*
X80700000Y-39710000D02*
X80700000Y-40030000D01*
G75*
G02*
X80540000Y-40190000I-160000J0D01*
G01*
X80145000Y-40190000D01*
G75*
G02*
X79985000Y-40030000I0J160000D01*
G01*
X79985000Y-39710000D01*
G75*
G02*
X80145000Y-39550000I160000J0D01*
G01*
X80540000Y-39550000D01*
G75*
G02*
X80700000Y-39710000I0J-160000D01*
G01*
G37*
G04 #@! TD.AperFunction*
G04 #@! TA.AperFunction,SMDPad,CuDef*
G36*
G01*
X81895000Y-39710000D02*
X81895000Y-40030000D01*
G75*
G02*
X81735000Y-40190000I-160000J0D01*
G01*
X81340000Y-40190000D01*
G75*
G02*
X81180000Y-40030000I0J160000D01*
G01*
X81180000Y-39710000D01*
G75*
G02*
X81340000Y-39550000I160000J0D01*
G01*
X81735000Y-39550000D01*
G75*
G02*
X81895000Y-39710000I0J-160000D01*
G01*
G37*
G04 #@! TD.AperFunction*
G04 #@! TA.AperFunction,SMDPad,CuDef*
G36*
G01*
X77070000Y-39680000D02*
X77070000Y-40000000D01*
G75*
G02*
X76910000Y-40160000I-160000J0D01*
G01*
X76515000Y-40160000D01*
G75*
G02*
X76355000Y-40000000I0J160000D01*
G01*
X76355000Y-39680000D01*
G75*
G02*
X76515000Y-39520000I160000J0D01*
G01*
X76910000Y-39520000D01*
G75*
G02*
X77070000Y-39680000I0J-160000D01*
G01*
G37*
G04 #@! TD.AperFunction*
G04 #@! TA.AperFunction,SMDPad,CuDef*
G36*
G01*
X78265000Y-39680000D02*
X78265000Y-40000000D01*
G75*
G02*
X78105000Y-40160000I-160000J0D01*
G01*
X77710000Y-40160000D01*
G75*
G02*
X77550000Y-40000000I0J160000D01*
G01*
X77550000Y-39680000D01*
G75*
G02*
X77710000Y-39520000I160000J0D01*
G01*
X78105000Y-39520000D01*
G75*
G02*
X78265000Y-39680000I0J-160000D01*
G01*
G37*
G04 #@! TD.AperFunction*
G04 #@! TA.AperFunction,SMDPad,CuDef*
G36*
G01*
X88271250Y-67745000D02*
X87508750Y-67745000D01*
G75*
G02*
X87290000Y-67526250I0J218750D01*
G01*
X87290000Y-67088750D01*
G75*
G02*
X87508750Y-66870000I218750J0D01*
G01*
X88271250Y-66870000D01*
G75*
G02*
X88490000Y-67088750I0J-218750D01*
G01*
X88490000Y-67526250D01*
G75*
G02*
X88271250Y-67745000I-218750J0D01*
G01*
G37*
G04 #@! TD.AperFunction*
G04 #@! TA.AperFunction,SMDPad,CuDef*
G36*
G01*
X88271250Y-69870000D02*
X87508750Y-69870000D01*
G75*
G02*
X87290000Y-69651250I0J218750D01*
G01*
X87290000Y-69213750D01*
G75*
G02*
X87508750Y-68995000I218750J0D01*
G01*
X88271250Y-68995000D01*
G75*
G02*
X88490000Y-69213750I0J-218750D01*
G01*
X88490000Y-69651250D01*
G75*
G02*
X88271250Y-69870000I-218750J0D01*
G01*
G37*
G04 #@! TD.AperFunction*
G04 #@! TA.AperFunction,SMDPad,CuDef*
G36*
G01*
X82595000Y-65910000D02*
X81645000Y-65910000D01*
G75*
G02*
X81395000Y-65660000I0J250000D01*
G01*
X81395000Y-65160000D01*
G75*
G02*
X81645000Y-64910000I250000J0D01*
G01*
X82595000Y-64910000D01*
G75*
G02*
X82845000Y-65160000I0J-250000D01*
G01*
X82845000Y-65660000D01*
G75*
G02*
X82595000Y-65910000I-250000J0D01*
G01*
G37*
G04 #@! TD.AperFunction*
G04 #@! TA.AperFunction,SMDPad,CuDef*
G36*
G01*
X82595000Y-67810000D02*
X81645000Y-67810000D01*
G75*
G02*
X81395000Y-67560000I0J250000D01*
G01*
X81395000Y-67060000D01*
G75*
G02*
X81645000Y-66810000I250000J0D01*
G01*
X82595000Y-66810000D01*
G75*
G02*
X82845000Y-67060000I0J-250000D01*
G01*
X82845000Y-67560000D01*
G75*
G02*
X82595000Y-67810000I-250000J0D01*
G01*
G37*
G04 #@! TD.AperFunction*
D12*
X35390000Y-121730000D03*
D13*
X32850000Y-121730000D03*
X72500000Y-97700000D03*
D12*
X69960000Y-97700000D03*
X67420000Y-97700000D03*
X64880000Y-97700000D03*
X62340000Y-97700000D03*
X59800000Y-97700000D03*
X57260000Y-97700000D03*
X54720000Y-97700000D03*
X52180000Y-97700000D03*
X49640000Y-97700000D03*
X47100000Y-97700000D03*
D14*
X33014000Y-126976000D03*
X127014000Y-126976000D03*
X127014000Y-32976000D03*
X33014000Y-32976000D03*
D22*
X111490000Y-124470000D03*
D23*
X112680000Y-39960000D03*
D22*
X105200000Y-122489999D03*
X111389998Y-128670000D03*
X113420000Y-124460000D03*
X113390000Y-126190000D03*
X111530000Y-126210000D03*
D23*
X50839998Y-46770002D03*
X33400000Y-67550000D03*
X99940000Y-61030000D03*
X49020000Y-50670000D03*
X34800000Y-72340000D03*
X71440000Y-62959998D03*
X81500000Y-45029998D03*
X77870000Y-44950000D03*
X79510000Y-40290000D03*
X75740000Y-39715000D03*
X78160000Y-64140000D03*
X89960000Y-69460000D03*
D24*
X79434000Y-69310000D02*
X79308000Y-69184000D01*
X99840000Y-66490000D02*
X99830000Y-66480000D01*
X100500000Y-66490000D02*
X99840000Y-66490000D01*
X102168000Y-68158000D02*
X100500000Y-66490000D01*
X102168000Y-69164000D02*
X102168000Y-68158000D01*
X100640000Y-98200000D02*
X99930000Y-98200000D01*
X102168000Y-99728000D02*
X100640000Y-98200000D01*
X102168000Y-100764000D02*
X102168000Y-99728000D01*
D25*
X79260000Y-69136000D02*
X79308000Y-69184000D01*
D24*
X36834000Y-67082000D02*
X36834000Y-68726000D01*
X36834000Y-68726000D02*
X36290000Y-69270000D01*
X36290000Y-69270000D02*
X35270000Y-69270000D01*
X49640000Y-97700000D02*
X47970000Y-96030000D01*
X47970000Y-96030000D02*
X45880000Y-96030000D01*
X36834000Y-89942000D02*
X42922000Y-96030000D01*
X44790000Y-96030000D02*
X44790000Y-96910000D01*
X42922000Y-96030000D02*
X44790000Y-96030000D01*
X44790000Y-96030000D02*
X45880000Y-96030000D01*
D25*
X56490000Y-52370000D02*
X53440000Y-55420000D01*
X53440000Y-55420000D02*
X53440000Y-57520000D01*
X80970000Y-52370000D02*
X56490000Y-52370000D01*
X83920000Y-55320000D02*
X80970000Y-52370000D01*
X83920000Y-57520000D02*
X83920000Y-55320000D01*
D26*
X117300000Y-40070000D02*
X112790000Y-40070000D01*
X112790000Y-40070000D02*
X112680000Y-39960000D01*
D25*
X102168000Y-100764000D02*
X114736000Y-100764000D01*
X114736000Y-100764000D02*
X117300000Y-98200000D01*
X117300000Y-98200000D02*
X117300000Y-40070000D01*
D24*
X79308000Y-69184000D02*
X79308000Y-66872000D01*
X80770000Y-65410000D02*
X82120000Y-65410000D01*
X79308000Y-66872000D02*
X80770000Y-65410000D01*
X85110000Y-64484998D02*
X85110000Y-65110000D01*
X83000000Y-64050000D02*
X84675002Y-64050000D01*
X82120000Y-64930000D02*
X83000000Y-64050000D01*
X84675002Y-64050000D02*
X85110000Y-64484998D01*
X82120000Y-65410000D02*
X82120000Y-64930000D01*
D25*
X44680000Y-122380000D02*
X42560000Y-124500000D01*
X46800000Y-122380000D02*
X44680000Y-122380000D01*
X48000000Y-122380000D02*
X46800000Y-122380000D01*
X49950000Y-124330000D02*
X48000000Y-122380000D01*
X49950000Y-125240000D02*
X49950000Y-124330000D01*
D27*
X109400000Y-125620000D02*
X111590000Y-125620000D01*
D25*
X106350000Y-122500000D02*
X105210001Y-122500000D01*
X105210001Y-122500000D02*
X105200000Y-122489999D01*
D27*
X109182500Y-128670000D02*
X111389998Y-128670000D01*
D28*
X76300000Y-57520000D02*
X76300000Y-56980000D01*
X49290000Y-60500000D02*
X44454000Y-65336000D01*
X55650000Y-60500000D02*
X49290000Y-60500000D01*
X57320000Y-58830000D02*
X55650000Y-60500000D01*
X44454000Y-65336000D02*
X44454000Y-67082000D01*
X57320000Y-55510000D02*
X57320000Y-58830000D01*
X58830000Y-54000000D02*
X57320000Y-55510000D01*
X74310000Y-54000000D02*
X58830000Y-54000000D01*
X76300000Y-55990000D02*
X74310000Y-54000000D01*
X76300000Y-57520000D02*
X76300000Y-55990000D01*
X103186000Y-76784000D02*
X102168000Y-76784000D01*
X103120000Y-72950000D02*
X103670000Y-73500000D01*
X95140000Y-68400000D02*
X99690000Y-72950000D01*
X103670000Y-76300000D02*
X103186000Y-76784000D01*
X95140000Y-65300000D02*
X95140000Y-68400000D01*
X89530000Y-59690000D02*
X95140000Y-65300000D01*
X103670000Y-73500000D02*
X103670000Y-76300000D01*
X76960000Y-59690000D02*
X89530000Y-59690000D01*
X76300000Y-59030000D02*
X76960000Y-59690000D01*
X99690000Y-72950000D02*
X103120000Y-72950000D01*
X76300000Y-57520000D02*
X76300000Y-59030000D01*
X41914000Y-67082000D02*
X42638000Y-67082000D01*
X73760000Y-57520000D02*
X73760000Y-57140000D01*
X98870000Y-74260000D02*
X98886000Y-74244000D01*
X94000000Y-70030000D02*
X98230000Y-74260000D01*
X94000000Y-66160000D02*
X94000000Y-70030000D01*
X98230000Y-74260000D02*
X98870000Y-74260000D01*
X88610000Y-60770000D02*
X94000000Y-66160000D01*
X98886000Y-74244000D02*
X102168000Y-74244000D01*
X75390000Y-60770000D02*
X88610000Y-60770000D01*
X73760000Y-59140000D02*
X75390000Y-60770000D01*
X73760000Y-57520000D02*
X73760000Y-59140000D01*
X45170000Y-68440000D02*
X42510000Y-68440000D01*
X42510000Y-68440000D02*
X41914000Y-67844000D01*
X45740000Y-66120000D02*
X45740000Y-67870000D01*
X56650000Y-61850000D02*
X50010000Y-61850000D01*
X59810000Y-56320000D02*
X59810000Y-58690000D01*
X61070000Y-55060000D02*
X59810000Y-56320000D01*
X50010000Y-61850000D02*
X45740000Y-66120000D01*
X71300000Y-55060000D02*
X61070000Y-55060000D01*
X41914000Y-67844000D02*
X41914000Y-67082000D01*
X45740000Y-67870000D02*
X45170000Y-68440000D01*
X59810000Y-58690000D02*
X56650000Y-61850000D01*
X73760000Y-57520000D02*
X71300000Y-55060000D01*
X100654000Y-79324000D02*
X102168000Y-79324000D01*
X92690000Y-71360000D02*
X100654000Y-79324000D01*
X92690000Y-66520000D02*
X92690000Y-71360000D01*
X74280000Y-61770000D02*
X87940000Y-61770000D01*
X87940000Y-61770000D02*
X92690000Y-66520000D01*
X71220000Y-58710000D02*
X74280000Y-61770000D01*
X71220000Y-57520000D02*
X71220000Y-58710000D01*
D24*
X47100000Y-97700000D02*
X46410000Y-97700000D01*
X46410000Y-97700000D02*
X46220000Y-97890000D01*
X46220000Y-97890000D02*
X44970000Y-97890000D01*
D28*
X72500000Y-98530000D02*
X72500000Y-97700000D01*
X71120000Y-99910000D02*
X72500000Y-98530000D01*
X68620000Y-99910000D02*
X71120000Y-99910000D01*
X69990000Y-97730000D02*
X69960000Y-97700000D01*
X69990000Y-98540000D02*
X69990000Y-97730000D01*
X68620000Y-99910000D02*
X69990000Y-98540000D01*
X60130000Y-99910000D02*
X62340000Y-97700000D01*
X60120000Y-99910000D02*
X60130000Y-99910000D01*
X60120000Y-99910000D02*
X68620000Y-99910000D01*
X48690000Y-99910000D02*
X60120000Y-99910000D01*
X47100000Y-98320000D02*
X48690000Y-99910000D01*
X47100000Y-97700000D02*
X47100000Y-98320000D01*
X122237500Y-123667500D02*
X117300000Y-118730000D01*
X122237500Y-125300000D02*
X122237500Y-123667500D01*
X117300000Y-118730000D02*
X114770000Y-118730000D01*
X114770000Y-118730000D02*
X114000000Y-119500000D01*
D26*
X117500000Y-118530000D02*
X117300000Y-118730000D01*
X123540000Y-103550000D02*
X117500000Y-109590000D01*
X123540000Y-34970000D02*
X123540000Y-103550000D01*
X121810000Y-33240000D02*
X123540000Y-34970000D01*
X57530000Y-33240000D02*
X121810000Y-33240000D01*
X117500000Y-109590000D02*
X117500000Y-118530000D01*
X55980000Y-34790000D02*
X57530000Y-33240000D01*
X55980000Y-37200000D02*
X55980000Y-34790000D01*
D28*
X33400000Y-68320000D02*
X33400000Y-67550000D01*
X34530000Y-69450000D02*
X33400000Y-68320000D01*
X83309998Y-46770002D02*
X50839998Y-46770002D01*
X88170000Y-41910000D02*
X83309998Y-46770002D01*
X88170000Y-39290000D02*
X88170000Y-41910000D01*
X90260000Y-37200000D02*
X88170000Y-39290000D01*
X91540000Y-37200000D02*
X90260000Y-37200000D01*
X98520000Y-62450000D02*
X99940000Y-61030000D01*
X98520000Y-66060000D02*
X98520000Y-62450000D01*
X99130000Y-66670000D02*
X98520000Y-66060000D01*
X99130000Y-97650000D02*
X99130000Y-98380000D01*
X99750000Y-97030000D02*
X99130000Y-97650000D01*
X105880000Y-97030000D02*
X99750000Y-97030000D01*
X111240000Y-91670000D02*
X105880000Y-97030000D01*
X97460000Y-49570000D02*
X111240000Y-63350000D01*
X97460000Y-45610000D02*
X97460000Y-49570000D01*
X95390000Y-43540000D02*
X97460000Y-45610000D01*
X111240000Y-63350000D02*
X111240000Y-91670000D01*
X92800000Y-43540000D02*
X95390000Y-43540000D01*
X91540000Y-42280000D02*
X92800000Y-43540000D01*
X44240000Y-97310000D02*
X41700000Y-97310000D01*
X41700000Y-97310000D02*
X34800000Y-90410000D01*
X34800000Y-90410000D02*
X34800000Y-72340000D01*
X89710000Y-44820000D02*
X91540000Y-44820000D01*
X86100000Y-48430000D02*
X89710000Y-44820000D01*
X51260000Y-48430000D02*
X86100000Y-48430000D01*
X49020000Y-50670000D02*
X51260000Y-48430000D01*
X87129998Y-62959998D02*
X71440000Y-62959998D01*
X91400000Y-67230000D02*
X87129998Y-62959998D01*
X91400000Y-73636000D02*
X91400000Y-67230000D01*
X102168000Y-84404000D02*
X91400000Y-73636000D01*
X83920000Y-37487500D02*
X81537500Y-39870000D01*
X83920000Y-37200000D02*
X83920000Y-37487500D01*
X81537500Y-39870000D02*
X81537500Y-44992498D01*
X81537500Y-44992498D02*
X81500000Y-45029998D01*
X78740000Y-39840000D02*
X81380000Y-37200000D01*
X77907500Y-39840000D02*
X78740000Y-39840000D01*
X44454000Y-89974000D02*
X44454000Y-89942000D01*
X52180000Y-97700000D02*
X44454000Y-89974000D01*
X82174000Y-76804000D02*
X79308000Y-76804000D01*
X84670000Y-103160000D02*
X84670000Y-79300000D01*
X84670000Y-79300000D02*
X82174000Y-76804000D01*
X79426000Y-108404000D02*
X84670000Y-103160000D01*
X79308000Y-108404000D02*
X79426000Y-108404000D01*
X77907500Y-39840000D02*
X77907500Y-44912500D01*
X77907500Y-44912500D02*
X77870000Y-44950000D01*
X79930000Y-39870000D02*
X79510000Y-40290000D01*
X80342500Y-39870000D02*
X79930000Y-39870000D01*
X75865000Y-39840000D02*
X75740000Y-39715000D01*
X76712500Y-39840000D02*
X75865000Y-39840000D01*
X78214000Y-110944000D02*
X79308000Y-110944000D01*
X77350000Y-110080000D02*
X78214000Y-110944000D01*
X77350000Y-98560000D02*
X77350000Y-110080000D01*
X83310000Y-81550000D02*
X83310000Y-92600000D01*
X81104000Y-79344000D02*
X83310000Y-81550000D01*
X83310000Y-92600000D02*
X77350000Y-98560000D01*
X79308000Y-79344000D02*
X81104000Y-79344000D01*
X76870000Y-76906000D02*
X76870000Y-65430000D01*
X76870000Y-65430000D02*
X78160000Y-64140000D01*
X79308000Y-79344000D02*
X76870000Y-76906000D01*
X77674000Y-113484000D02*
X79308000Y-113484000D01*
X76060000Y-111870000D02*
X77674000Y-113484000D01*
X76060000Y-97310000D02*
X76060000Y-111870000D01*
X81910000Y-83240000D02*
X81910000Y-91460000D01*
X80554000Y-81884000D02*
X81910000Y-83240000D01*
X81910000Y-91460000D02*
X76060000Y-97310000D01*
X79308000Y-81884000D02*
X80554000Y-81884000D01*
X68990000Y-63900000D02*
X66140000Y-61050000D01*
X76150000Y-64320000D02*
X75730000Y-63900000D01*
X76150000Y-64505181D02*
X76150000Y-64320000D01*
X76237788Y-64687688D02*
X76237788Y-64592969D01*
X76254830Y-64704730D02*
X76237788Y-64687688D01*
X76254830Y-82684830D02*
X76254830Y-64704730D01*
X77994000Y-84424000D02*
X76254830Y-82684830D01*
X66140000Y-61050000D02*
X66140000Y-57520000D01*
X75730000Y-63900000D02*
X68990000Y-63900000D01*
X76237788Y-64592969D02*
X76150000Y-64505181D01*
X79308000Y-84424000D02*
X77994000Y-84424000D01*
X59010000Y-62930000D02*
X63600000Y-58340000D01*
X54400000Y-62930000D02*
X59010000Y-62930000D01*
X53280000Y-64050000D02*
X54400000Y-62930000D01*
X53280000Y-92590000D02*
X53280000Y-64050000D01*
X55260000Y-94570000D02*
X53280000Y-92590000D01*
X63600000Y-58340000D02*
X63600000Y-57520000D01*
X72850000Y-94570000D02*
X55260000Y-94570000D01*
X73780000Y-95500000D02*
X72850000Y-94570000D01*
X73780000Y-113980000D02*
X73780000Y-95500000D01*
X75824000Y-116024000D02*
X73780000Y-113980000D01*
X79308000Y-116024000D02*
X75824000Y-116024000D01*
X100882000Y-114750000D02*
X102168000Y-113464000D01*
X74870000Y-113170000D02*
X76450000Y-114750000D01*
X61060000Y-57520000D02*
X61060000Y-56750000D01*
X56480000Y-63810000D02*
X56090000Y-64200000D01*
X61060000Y-56750000D02*
X61920000Y-55890000D01*
X64830000Y-56610000D02*
X64830000Y-59960000D01*
X56090000Y-92560000D02*
X56670000Y-93140000D01*
X76450000Y-114750000D02*
X100882000Y-114750000D01*
X64110000Y-55890000D02*
X64830000Y-56610000D01*
X64830000Y-59960000D02*
X60980000Y-63810000D01*
X60980000Y-63810000D02*
X56480000Y-63810000D01*
X56670000Y-93140000D02*
X73640000Y-93140000D01*
X61920000Y-55890000D02*
X64110000Y-55890000D01*
X56090000Y-64200000D02*
X56090000Y-92560000D01*
X73640000Y-93140000D02*
X74870000Y-94370000D01*
X74870000Y-94370000D02*
X74870000Y-113170000D01*
D24*
X39374000Y-67082000D02*
X39374000Y-68366000D01*
X39374000Y-68366000D02*
X37710000Y-70030000D01*
X37710000Y-70030000D02*
X35320000Y-70030000D01*
X99730000Y-67270000D02*
X99725000Y-67265000D01*
X100944000Y-71704000D02*
X99730000Y-70490000D01*
X102168000Y-71704000D02*
X100944000Y-71704000D01*
D29*
X99530000Y-67070000D02*
X99730000Y-67270000D01*
D24*
X99730000Y-68850000D02*
X99730000Y-67270000D01*
X99730000Y-70490000D02*
X99730000Y-68850000D01*
X87917500Y-69460000D02*
X87890000Y-69432500D01*
X89960000Y-69460000D02*
X87917500Y-69460000D01*
X87890000Y-67307500D02*
X87890000Y-66090000D01*
X86910000Y-65110000D02*
X86060000Y-65110000D01*
X87890000Y-66090000D02*
X86910000Y-65110000D01*
X98130000Y-98370000D02*
X98710000Y-98950000D01*
X98130000Y-95580000D02*
X98130000Y-98370000D01*
D25*
X104430000Y-95580000D02*
X98130000Y-95580000D01*
X108950000Y-91060000D02*
X104430000Y-95580000D01*
X102780000Y-59360000D02*
X108950000Y-65530000D01*
X82990000Y-50180000D02*
X92170000Y-59360000D01*
X108950000Y-65530000D02*
X108950000Y-91060000D01*
X92170000Y-59360000D02*
X102780000Y-59360000D01*
X48360000Y-55510000D02*
X53690000Y-50180000D01*
X53690000Y-50180000D02*
X82990000Y-50180000D01*
X48360000Y-57520000D02*
X48360000Y-55510000D01*
D24*
X98810000Y-67240000D02*
X98830000Y-67220000D01*
X97920000Y-67240000D02*
X98810000Y-67240000D01*
X96220000Y-65540000D02*
X97920000Y-67240000D01*
X96220000Y-59520000D02*
X96220000Y-65540000D01*
X96380000Y-59360000D02*
X96220000Y-59520000D01*
D25*
X31920000Y-91170000D02*
X36410000Y-95660000D01*
D24*
X37480000Y-96730000D02*
X36410000Y-95660000D01*
X38640000Y-97890000D02*
X37480000Y-96730000D01*
X43970000Y-97890000D02*
X38640000Y-97890000D01*
X34250000Y-70030000D02*
X31960000Y-70030000D01*
D25*
X31920000Y-70070000D02*
X31920000Y-91170000D01*
D24*
X31960000Y-70030000D02*
X31920000Y-70070000D01*
D25*
X31920000Y-65020000D02*
X31920000Y-70070000D01*
X35640000Y-61300000D02*
X31920000Y-65020000D01*
X45340000Y-61300000D02*
X35640000Y-61300000D01*
X48360000Y-58280000D02*
X45340000Y-61300000D01*
X48360000Y-57520000D02*
X48360000Y-58280000D01*
D24*
X102168000Y-103304000D02*
X100834000Y-103304000D01*
X100834000Y-103304000D02*
X99710000Y-102180000D01*
X99710000Y-102180000D02*
X99710000Y-99160000D01*
D28*
X114530000Y-127520000D02*
X115787500Y-126262500D01*
X110940000Y-127520000D02*
X114530000Y-127520000D01*
X109990000Y-126570000D02*
X110940000Y-127520000D01*
X115787500Y-126262500D02*
X115787500Y-125300000D01*
X109400000Y-126570000D02*
X109990000Y-126570000D01*
D27*
X107280000Y-128592500D02*
X107357500Y-128670000D01*
X107280000Y-126650000D02*
X107280000Y-128592500D01*
X107200000Y-126570000D02*
X107280000Y-126650000D01*
D28*
X117612500Y-125300000D02*
X120362500Y-125300000D01*
D25*
X46800000Y-126380000D02*
X46800000Y-128380000D01*
X46800000Y-128380000D02*
X46480000Y-128700000D01*
X49950000Y-128650000D02*
X49900000Y-128700000D01*
X49950000Y-127140000D02*
X49950000Y-128650000D01*
X46480000Y-128700000D02*
X49900000Y-128700000D01*
X102370000Y-128700000D02*
X87900000Y-128700000D01*
X87900000Y-128700000D02*
X49900000Y-128700000D01*
D28*
X102694000Y-128700000D02*
X102370000Y-128700000D01*
D25*
X102694000Y-128700000D02*
X103480000Y-128700000D01*
X103480000Y-128700000D02*
X105360000Y-126820000D01*
X43180000Y-128700000D02*
X46480000Y-128700000D01*
X40060000Y-125580000D02*
X43180000Y-128700000D01*
X40060000Y-124500000D02*
X40060000Y-125580000D01*
X34480000Y-124500000D02*
X40060000Y-124500000D01*
X32850000Y-122870000D02*
X34480000Y-124500000D01*
X32850000Y-121730000D02*
X32850000Y-122870000D01*
D24*
X82120000Y-67310000D02*
X82120000Y-70630000D01*
X81026000Y-71724000D02*
X79308000Y-71724000D01*
X82120000Y-70630000D02*
X81026000Y-71724000D01*
X84160000Y-67310000D02*
X82120000Y-67310000D01*
D30*
X114767154Y-118430746D02*
X114882083Y-118498052D01*
X114972240Y-118596084D01*
X115029708Y-118716232D01*
X115050000Y-118851673D01*
X115050000Y-122696725D01*
X115034250Y-122816357D01*
X114989337Y-122924786D01*
X114917893Y-123017893D01*
X114824786Y-123089337D01*
X114716357Y-123134250D01*
X114596725Y-123150000D01*
X110509012Y-123150000D01*
X110501300Y-123150598D01*
X110348906Y-123174388D01*
X110339416Y-123176842D01*
X110334216Y-123179089D01*
X110196324Y-123248195D01*
X110188034Y-123253425D01*
X110183766Y-123257150D01*
X110073498Y-123364995D01*
X110067196Y-123372502D01*
X110064266Y-123377351D01*
X109992113Y-123513674D01*
X109988399Y-123522745D01*
X109987087Y-123528257D01*
X109959918Y-123680085D01*
X109959148Y-123687781D01*
X109940962Y-124506123D01*
X109915852Y-124646444D01*
X109851001Y-124768972D01*
X109751895Y-124865900D01*
X109627958Y-124928012D01*
X109487107Y-124950000D01*
X109404242Y-124950000D01*
X109284468Y-124934212D01*
X109175929Y-124889192D01*
X109082766Y-124817588D01*
X109011338Y-124724284D01*
X108966528Y-124615660D01*
X108950969Y-124495851D01*
X108959034Y-120302409D01*
X108974976Y-120182945D01*
X109019989Y-120074717D01*
X109091452Y-119981800D01*
X109184504Y-119910517D01*
X109292822Y-119865712D01*
X109412311Y-119850000D01*
X112786050Y-119850000D01*
X112792769Y-119849547D01*
X112925918Y-119831492D01*
X112938869Y-119827914D01*
X113062402Y-119775055D01*
X113073933Y-119768156D01*
X113178928Y-119684308D01*
X113183895Y-119679762D01*
X114271919Y-118539928D01*
X114380114Y-118455969D01*
X114504647Y-118408738D01*
X114637549Y-118400077D01*
X114767154Y-118430746D01*
G04 #@! TA.AperFunction,Conductor*
G36*
X114767154Y-118430746D02*
G01*
X114882083Y-118498052D01*
X114972240Y-118596084D01*
X115029708Y-118716232D01*
X115050000Y-118851673D01*
X115050000Y-122696725D01*
X115034250Y-122816357D01*
X114989337Y-122924786D01*
X114917893Y-123017893D01*
X114824786Y-123089337D01*
X114716357Y-123134250D01*
X114596725Y-123150000D01*
X110509012Y-123150000D01*
X110501300Y-123150598D01*
X110348906Y-123174388D01*
X110339416Y-123176842D01*
X110334216Y-123179089D01*
X110196324Y-123248195D01*
X110188034Y-123253425D01*
X110183766Y-123257150D01*
X110073498Y-123364995D01*
X110067196Y-123372502D01*
X110064266Y-123377351D01*
X109992113Y-123513674D01*
X109988399Y-123522745D01*
X109987087Y-123528257D01*
X109959918Y-123680085D01*
X109959148Y-123687781D01*
X109940962Y-124506123D01*
X109915852Y-124646444D01*
X109851001Y-124768972D01*
X109751895Y-124865900D01*
X109627958Y-124928012D01*
X109487107Y-124950000D01*
X109404242Y-124950000D01*
X109284468Y-124934212D01*
X109175929Y-124889192D01*
X109082766Y-124817588D01*
X109011338Y-124724284D01*
X108966528Y-124615660D01*
X108950969Y-124495851D01*
X108959034Y-120302409D01*
X108974976Y-120182945D01*
X109019989Y-120074717D01*
X109091452Y-119981800D01*
X109184504Y-119910517D01*
X109292822Y-119865712D01*
X109412311Y-119850000D01*
X112786050Y-119850000D01*
X112792769Y-119849547D01*
X112925918Y-119831492D01*
X112938869Y-119827914D01*
X113062402Y-119775055D01*
X113073933Y-119768156D01*
X113178928Y-119684308D01*
X113183895Y-119679762D01*
X114271919Y-118539928D01*
X114380114Y-118455969D01*
X114504647Y-118408738D01*
X114637549Y-118400077D01*
X114767154Y-118430746D01*
G37*
G04 #@! TD.AperFunction*
X109714557Y-120940128D02*
X109805112Y-120985177D01*
X109877118Y-121056202D01*
X109923407Y-121146133D01*
X109940000Y-121249977D01*
X109940000Y-124496725D01*
X109924250Y-124616357D01*
X109879337Y-124724786D01*
X109807893Y-124817893D01*
X109714786Y-124889337D01*
X109606357Y-124934250D01*
X109486725Y-124950000D01*
X109358732Y-124950000D01*
X109239775Y-124934430D01*
X109131869Y-124890022D01*
X109039027Y-124819339D01*
X108967502Y-124727141D01*
X108922114Y-124619645D01*
X108905464Y-124500834D01*
X108900091Y-123909763D01*
X108900071Y-123908742D01*
X108899468Y-123888318D01*
X108899428Y-123887297D01*
X108894938Y-123797503D01*
X108893491Y-123787809D01*
X108890445Y-123779149D01*
X108857865Y-123708142D01*
X108852924Y-123699677D01*
X108846426Y-123692338D01*
X108838622Y-123686408D01*
X108830976Y-123682564D01*
X108758431Y-123653571D01*
X108749016Y-123650843D01*
X108739875Y-123650000D01*
X108003275Y-123650000D01*
X107883643Y-123634250D01*
X107775214Y-123589337D01*
X107682107Y-123517893D01*
X107610663Y-123424786D01*
X107565750Y-123316357D01*
X107550000Y-123196725D01*
X107550000Y-121903275D01*
X107565750Y-121783643D01*
X107610663Y-121675214D01*
X107682107Y-121582107D01*
X107775214Y-121510663D01*
X107883643Y-121465750D01*
X108003275Y-121450000D01*
X108632216Y-121450000D01*
X108640275Y-121449346D01*
X108799342Y-121423369D01*
X108808814Y-121420849D01*
X108814622Y-121418242D01*
X108957161Y-121343009D01*
X108963983Y-121338669D01*
X109421999Y-120992271D01*
X109514825Y-120942869D01*
X109614475Y-120925540D01*
X109714557Y-120940128D01*
G04 #@! TA.AperFunction,Conductor*
G36*
X109714557Y-120940128D02*
G01*
X109805112Y-120985177D01*
X109877118Y-121056202D01*
X109923407Y-121146133D01*
X109940000Y-121249977D01*
X109940000Y-124496725D01*
X109924250Y-124616357D01*
X109879337Y-124724786D01*
X109807893Y-124817893D01*
X109714786Y-124889337D01*
X109606357Y-124934250D01*
X109486725Y-124950000D01*
X109358732Y-124950000D01*
X109239775Y-124934430D01*
X109131869Y-124890022D01*
X109039027Y-124819339D01*
X108967502Y-124727141D01*
X108922114Y-124619645D01*
X108905464Y-124500834D01*
X108900091Y-123909763D01*
X108900071Y-123908742D01*
X108899468Y-123888318D01*
X108899428Y-123887297D01*
X108894938Y-123797503D01*
X108893491Y-123787809D01*
X108890445Y-123779149D01*
X108857865Y-123708142D01*
X108852924Y-123699677D01*
X108846426Y-123692338D01*
X108838622Y-123686408D01*
X108830976Y-123682564D01*
X108758431Y-123653571D01*
X108749016Y-123650843D01*
X108739875Y-123650000D01*
X108003275Y-123650000D01*
X107883643Y-123634250D01*
X107775214Y-123589337D01*
X107682107Y-123517893D01*
X107610663Y-123424786D01*
X107565750Y-123316357D01*
X107550000Y-123196725D01*
X107550000Y-121903275D01*
X107565750Y-121783643D01*
X107610663Y-121675214D01*
X107682107Y-121582107D01*
X107775214Y-121510663D01*
X107883643Y-121465750D01*
X108003275Y-121450000D01*
X108632216Y-121450000D01*
X108640275Y-121449346D01*
X108799342Y-121423369D01*
X108808814Y-121420849D01*
X108814622Y-121418242D01*
X108957161Y-121343009D01*
X108963983Y-121338669D01*
X109421999Y-120992271D01*
X109514825Y-120942869D01*
X109614475Y-120925540D01*
X109714557Y-120940128D01*
G37*
G04 #@! TD.AperFunction*
X99950000Y-67490000D02*
X99460000Y-67490000D01*
X99460000Y-67000000D01*
X99950000Y-67000000D01*
X99950000Y-67490000D01*
G04 #@! TA.AperFunction,Conductor*
G36*
X99950000Y-67490000D02*
G01*
X99460000Y-67490000D01*
X99460000Y-67000000D01*
X99950000Y-67000000D01*
X99950000Y-67490000D01*
G37*
G04 #@! TD.AperFunction*
X99950000Y-66746582D02*
X99460000Y-66746582D01*
X99460000Y-66256582D01*
X99950000Y-66256582D01*
X99950000Y-66746582D01*
G04 #@! TA.AperFunction,Conductor*
G36*
X99950000Y-66746582D02*
G01*
X99460000Y-66746582D01*
X99460000Y-66256582D01*
X99950000Y-66256582D01*
X99950000Y-66746582D01*
G37*
G04 #@! TD.AperFunction*
X99200000Y-67490000D02*
X98710000Y-67490000D01*
X98710000Y-67000000D01*
X99200000Y-67000000D01*
X99200000Y-67490000D01*
G04 #@! TA.AperFunction,Conductor*
G36*
X99200000Y-67490000D02*
G01*
X98710000Y-67490000D01*
X98710000Y-67000000D01*
X99200000Y-67000000D01*
X99200000Y-67490000D01*
G37*
G04 #@! TD.AperFunction*
X99950000Y-99200000D02*
X99460000Y-99200000D01*
X99460000Y-98710000D01*
X99950000Y-98710000D01*
X99950000Y-99200000D01*
G04 #@! TA.AperFunction,Conductor*
G36*
X99950000Y-99200000D02*
G01*
X99460000Y-99200000D01*
X99460000Y-98710000D01*
X99950000Y-98710000D01*
X99950000Y-99200000D01*
G37*
G04 #@! TD.AperFunction*
X99200000Y-99200000D02*
X98710000Y-99200000D01*
X98710000Y-98710000D01*
X99200000Y-98710000D01*
X99200000Y-99200000D01*
G04 #@! TA.AperFunction,Conductor*
G36*
X99200000Y-99200000D02*
G01*
X98710000Y-99200000D01*
X98710000Y-98710000D01*
X99200000Y-98710000D01*
X99200000Y-99200000D01*
G37*
G04 #@! TD.AperFunction*
X99950000Y-98450000D02*
X99460000Y-98450000D01*
X99460000Y-97960000D01*
X99950000Y-97960000D01*
X99950000Y-98450000D01*
G04 #@! TA.AperFunction,Conductor*
G36*
X99950000Y-98450000D02*
G01*
X99460000Y-98450000D01*
X99460000Y-97960000D01*
X99950000Y-97960000D01*
X99950000Y-98450000D01*
G37*
G04 #@! TD.AperFunction*
X35350000Y-69520000D02*
X34860000Y-69520000D01*
X34860000Y-69030000D01*
X35350000Y-69030000D01*
X35350000Y-69520000D01*
G04 #@! TA.AperFunction,Conductor*
G36*
X35350000Y-69520000D02*
G01*
X34860000Y-69520000D01*
X34860000Y-69030000D01*
X35350000Y-69030000D01*
X35350000Y-69520000D01*
G37*
G04 #@! TD.AperFunction*
X35350000Y-70270000D02*
X34860000Y-70270000D01*
X34860000Y-69780000D01*
X35350000Y-69780000D01*
X35350000Y-70270000D01*
G04 #@! TA.AperFunction,Conductor*
G36*
X35350000Y-70270000D02*
G01*
X34860000Y-70270000D01*
X34860000Y-69780000D01*
X35350000Y-69780000D01*
X35350000Y-70270000D01*
G37*
G04 #@! TD.AperFunction*
X34600000Y-70270000D02*
X34110000Y-70270000D01*
X34110000Y-69780000D01*
X34600000Y-69780000D01*
X34600000Y-70270000D01*
G04 #@! TA.AperFunction,Conductor*
G36*
X34600000Y-70270000D02*
G01*
X34110000Y-70270000D01*
X34110000Y-69780000D01*
X34600000Y-69780000D01*
X34600000Y-70270000D01*
G37*
G04 #@! TD.AperFunction*
X45060000Y-98130000D02*
X44570000Y-98130000D01*
X44570000Y-97640000D01*
X45060000Y-97640000D01*
X45060000Y-98130000D01*
G04 #@! TA.AperFunction,Conductor*
G36*
X45060000Y-98130000D02*
G01*
X44570000Y-98130000D01*
X44570000Y-97640000D01*
X45060000Y-97640000D01*
X45060000Y-98130000D01*
G37*
G04 #@! TD.AperFunction*
X45060000Y-97380000D02*
X44570000Y-97380000D01*
X44570000Y-96890000D01*
X45060000Y-96890000D01*
X45060000Y-97380000D01*
G04 #@! TA.AperFunction,Conductor*
G36*
X45060000Y-97380000D02*
G01*
X44570000Y-97380000D01*
X44570000Y-96890000D01*
X45060000Y-96890000D01*
X45060000Y-97380000D01*
G37*
G04 #@! TD.AperFunction*
X44310000Y-98130000D02*
X43820000Y-98130000D01*
X43820000Y-97640000D01*
X44310000Y-97640000D01*
X44310000Y-98130000D01*
G04 #@! TA.AperFunction,Conductor*
G36*
X44310000Y-98130000D02*
G01*
X43820000Y-98130000D01*
X43820000Y-97640000D01*
X44310000Y-97640000D01*
X44310000Y-98130000D01*
G37*
G04 #@! TD.AperFunction*
D31*
X113806257Y-123690769D02*
X113895955Y-123727923D01*
X113972976Y-123787024D01*
X114032077Y-123864045D01*
X114069231Y-123953743D01*
X114083000Y-124058328D01*
X114083000Y-126721672D01*
X114069231Y-126826257D01*
X114032077Y-126915955D01*
X113972976Y-126992976D01*
X113895955Y-127052077D01*
X113806257Y-127089231D01*
X113701672Y-127103000D01*
X111091514Y-127103000D01*
X110627000Y-126638486D01*
X110627000Y-124058328D01*
X110640769Y-123953743D01*
X110677923Y-123864045D01*
X110737024Y-123787024D01*
X110814045Y-123727923D01*
X110903743Y-123690769D01*
X111008328Y-123677000D01*
X113701672Y-123677000D01*
X113806257Y-123690769D01*
G04 #@! TA.AperFunction,Conductor*
D30*
G36*
X113806257Y-123690769D02*
G01*
X113895955Y-123727923D01*
X113972976Y-123787024D01*
X114032077Y-123864045D01*
X114069231Y-123953743D01*
X114083000Y-124058328D01*
X114083000Y-126721672D01*
X114069231Y-126826257D01*
X114032077Y-126915955D01*
X113972976Y-126992976D01*
X113895955Y-127052077D01*
X113806257Y-127089231D01*
X113701672Y-127103000D01*
X111091514Y-127103000D01*
X110627000Y-126638486D01*
X110627000Y-124058328D01*
X110640769Y-123953743D01*
X110677923Y-123864045D01*
X110737024Y-123787024D01*
X110814045Y-123727923D01*
X110903743Y-123690769D01*
X111008328Y-123677000D01*
X113701672Y-123677000D01*
X113806257Y-123690769D01*
G37*
G04 #@! TD.AperFunction*
X107520404Y-124065750D02*
X107628833Y-124110663D01*
X107721940Y-124182107D01*
X107793384Y-124275214D01*
X107838297Y-124383643D01*
X107854047Y-124503275D01*
X107854047Y-125096725D01*
X107838297Y-125216357D01*
X107793384Y-125324786D01*
X107721940Y-125417893D01*
X107628833Y-125489337D01*
X107520404Y-125534250D01*
X107400772Y-125550000D01*
X106834047Y-125550000D01*
X106827521Y-125550428D01*
X106698111Y-125567465D01*
X106685503Y-125570843D01*
X106564913Y-125620793D01*
X106553609Y-125627320D01*
X106450056Y-125706780D01*
X106440827Y-125716009D01*
X106361367Y-125819562D01*
X106354840Y-125830866D01*
X106304890Y-125951456D01*
X106301512Y-125964064D01*
X106284475Y-126093474D01*
X106284047Y-126100000D01*
X106284047Y-126866725D01*
X106268297Y-126986357D01*
X106223384Y-127094786D01*
X106151940Y-127187893D01*
X106058833Y-127259337D01*
X105950404Y-127304250D01*
X105830772Y-127320000D01*
X105247322Y-127320000D01*
X105127690Y-127304250D01*
X105019261Y-127259337D01*
X104926154Y-127187893D01*
X104854710Y-127094786D01*
X104809797Y-126986357D01*
X104794047Y-126866725D01*
X104794047Y-124503275D01*
X104809797Y-124383643D01*
X104854710Y-124275214D01*
X104926154Y-124182107D01*
X105019261Y-124110663D01*
X105127690Y-124065750D01*
X105247322Y-124050000D01*
X107400772Y-124050000D01*
X107520404Y-124065750D01*
G04 #@! TA.AperFunction,Conductor*
G36*
X107520404Y-124065750D02*
G01*
X107628833Y-124110663D01*
X107721940Y-124182107D01*
X107793384Y-124275214D01*
X107838297Y-124383643D01*
X107854047Y-124503275D01*
X107854047Y-125096725D01*
X107838297Y-125216357D01*
X107793384Y-125324786D01*
X107721940Y-125417893D01*
X107628833Y-125489337D01*
X107520404Y-125534250D01*
X107400772Y-125550000D01*
X106834047Y-125550000D01*
X106827521Y-125550428D01*
X106698111Y-125567465D01*
X106685503Y-125570843D01*
X106564913Y-125620793D01*
X106553609Y-125627320D01*
X106450056Y-125706780D01*
X106440827Y-125716009D01*
X106361367Y-125819562D01*
X106354840Y-125830866D01*
X106304890Y-125951456D01*
X106301512Y-125964064D01*
X106284475Y-126093474D01*
X106284047Y-126100000D01*
X106284047Y-126866725D01*
X106268297Y-126986357D01*
X106223384Y-127094786D01*
X106151940Y-127187893D01*
X106058833Y-127259337D01*
X105950404Y-127304250D01*
X105830772Y-127320000D01*
X105247322Y-127320000D01*
X105127690Y-127304250D01*
X105019261Y-127259337D01*
X104926154Y-127187893D01*
X104854710Y-127094786D01*
X104809797Y-126986357D01*
X104794047Y-126866725D01*
X104794047Y-124503275D01*
X104809797Y-124383643D01*
X104854710Y-124275214D01*
X104926154Y-124182107D01*
X105019261Y-124110663D01*
X105127690Y-124065750D01*
X105247322Y-124050000D01*
X107400772Y-124050000D01*
X107520404Y-124065750D01*
G37*
G04 #@! TD.AperFunction*
M02*
