G04 #@! TF.GenerationSoftware,KiCad,Pcbnew,5.1.9-73d0e3b20d~88~ubuntu20.04.1*
G04 #@! TF.CreationDate,2021-03-19T21:26:38+02:00*
G04 #@! TF.ProjectId,QuickFeather-Enviroment-Monitor,51756963-6b46-4656-9174-6865722d456e,rev?*
G04 #@! TF.SameCoordinates,Original*
G04 #@! TF.FileFunction,Copper,L2,Bot*
G04 #@! TF.FilePolarity,Positive*
%FSLAX46Y46*%
G04 Gerber Fmt 4.6, Leading zero omitted, Abs format (unit mm)*
G04 Created by KiCad (PCBNEW 5.1.9-73d0e3b20d~88~ubuntu20.04.1) date 2021-03-19 21:26:38*
%MOMM*%
%LPD*%
G01*
G04 APERTURE LIST*
G04 #@! TA.AperFunction,ComponentPad*
%ADD10O,2.000000X1.200000*%
G04 #@! TD*
G04 #@! TA.AperFunction,ComponentPad*
%ADD11O,1.200000X2.000000*%
G04 #@! TD*
G04 #@! TA.AperFunction,ComponentPad*
%ADD12O,1.700000X1.700000*%
G04 #@! TD*
G04 #@! TA.AperFunction,ComponentPad*
%ADD13R,1.700000X1.700000*%
G04 #@! TD*
G04 #@! TA.AperFunction,ComponentPad*
%ADD14C,3.302000*%
G04 #@! TD*
G04 #@! TA.AperFunction,ComponentPad*
%ADD15C,1.600000*%
G04 #@! TD*
G04 #@! TA.AperFunction,ComponentPad*
%ADD16R,1.600000X1.600000*%
G04 #@! TD*
G04 #@! TA.AperFunction,ViaPad*
%ADD17C,0.800000*%
G04 #@! TD*
G04 #@! TA.AperFunction,ViaPad*
%ADD18C,0.600000*%
G04 #@! TD*
G04 #@! TA.AperFunction,Conductor*
%ADD19C,1.000000*%
G04 #@! TD*
G04 #@! TA.AperFunction,Conductor*
%ADD20C,0.250000*%
G04 #@! TD*
G04 #@! TA.AperFunction,Conductor*
%ADD21C,1.500000*%
G04 #@! TD*
G04 #@! TA.AperFunction,Conductor*
%ADD22C,0.500000*%
G04 #@! TD*
G04 #@! TA.AperFunction,Conductor*
%ADD23C,0.100000*%
G04 #@! TD*
G04 APERTURE END LIST*
D10*
X91540000Y-37200000D03*
X94080000Y-39740000D03*
X94080000Y-37200000D03*
X91540000Y-39740000D03*
X91540000Y-42280000D03*
X94080000Y-44820000D03*
X94080000Y-42280000D03*
X91540000Y-44820000D03*
X91540000Y-47360000D03*
X94080000Y-49900000D03*
X94080000Y-47360000D03*
X91540000Y-49900000D03*
X94080000Y-54980000D03*
X94080000Y-52440000D03*
X91540000Y-54980000D03*
X91540000Y-52440000D03*
D11*
X76300000Y-37200000D03*
X83920000Y-37200000D03*
X68680000Y-37200000D03*
X73760000Y-37200000D03*
X71220000Y-37200000D03*
X81380000Y-37200000D03*
X66140000Y-37200000D03*
X58520000Y-37200000D03*
X61060000Y-37200000D03*
X78840000Y-37200000D03*
X63600000Y-37200000D03*
X55980000Y-37200000D03*
X83920000Y-57520000D03*
X81380000Y-57520000D03*
X78840000Y-57520000D03*
X76300000Y-57520000D03*
X73760000Y-57520000D03*
X71220000Y-57520000D03*
X68680000Y-57520000D03*
X66140000Y-57520000D03*
X63600000Y-57520000D03*
X61060000Y-57520000D03*
X58520000Y-57520000D03*
X55980000Y-57520000D03*
X53440000Y-57520000D03*
X50900000Y-57520000D03*
X48360000Y-57520000D03*
X45820000Y-57520000D03*
D12*
X46994000Y-89942000D03*
X44454000Y-89942000D03*
X52074000Y-89942000D03*
X41914000Y-89942000D03*
X39374000Y-89942000D03*
X36834000Y-89942000D03*
D13*
X54614000Y-89942000D03*
D12*
X49534000Y-89942000D03*
X36834000Y-67082000D03*
X39374000Y-67082000D03*
X41914000Y-67082000D03*
X44454000Y-67082000D03*
X46994000Y-67082000D03*
X49534000Y-67082000D03*
X52074000Y-67082000D03*
D13*
X54614000Y-67082000D03*
D12*
X79308000Y-110944000D03*
X79308000Y-108404000D03*
X79308000Y-116024000D03*
X79308000Y-105864000D03*
X79308000Y-103324000D03*
X79308000Y-100784000D03*
D13*
X79308000Y-118564000D03*
D12*
X79308000Y-113484000D03*
X102168000Y-100764000D03*
X102168000Y-103304000D03*
X102168000Y-105844000D03*
X102168000Y-108384000D03*
X102168000Y-110924000D03*
X102168000Y-113464000D03*
X102168000Y-116004000D03*
D13*
X102168000Y-118544000D03*
D12*
X79308000Y-79344000D03*
X79308000Y-76804000D03*
X79308000Y-84424000D03*
X79308000Y-74264000D03*
X79308000Y-71724000D03*
X79308000Y-69184000D03*
D13*
X79308000Y-86964000D03*
D12*
X79308000Y-81884000D03*
X102168000Y-69164000D03*
X102168000Y-71704000D03*
X102168000Y-74244000D03*
X102168000Y-76784000D03*
X102168000Y-79324000D03*
X102168000Y-81864000D03*
X102168000Y-84404000D03*
D13*
X102168000Y-86944000D03*
D14*
X36014000Y-110176000D03*
X36014000Y-100176000D03*
D15*
X42560000Y-124500000D03*
D16*
X40060000Y-124500000D03*
D12*
X35390000Y-121730000D03*
D13*
X32850000Y-121730000D03*
X72500000Y-97700000D03*
D12*
X69960000Y-97700000D03*
X67420000Y-97700000D03*
X64880000Y-97700000D03*
X62340000Y-97700000D03*
X59800000Y-97700000D03*
X57260000Y-97700000D03*
X54720000Y-97700000D03*
X52180000Y-97700000D03*
X49640000Y-97700000D03*
X47100000Y-97700000D03*
D14*
X33014000Y-126976000D03*
X127014000Y-126976000D03*
X127014000Y-32976000D03*
X33014000Y-32976000D03*
D17*
X111490000Y-124470000D03*
D18*
X112680000Y-39960000D03*
D17*
X105200000Y-122489999D03*
X111389998Y-128670000D03*
X113420000Y-124460000D03*
X113390000Y-126190000D03*
X111530000Y-126210000D03*
D18*
X50839998Y-46770002D03*
X33400000Y-67550000D03*
X99940000Y-61030000D03*
X49020000Y-50670000D03*
X34800000Y-72340000D03*
X71440000Y-62959998D03*
X81500000Y-45029998D03*
X77870000Y-44950000D03*
X79510000Y-40290000D03*
X75740000Y-39715000D03*
X78160000Y-64140000D03*
X89960000Y-69460000D03*
D19*
X36834000Y-67082000D02*
X36834000Y-89942000D01*
D20*
X49640000Y-98280000D02*
X49640000Y-97700000D01*
X58050000Y-99860000D02*
X51220000Y-99860000D01*
X51220000Y-99860000D02*
X49640000Y-98280000D01*
X59800000Y-98110000D02*
X58050000Y-99860000D01*
X59800000Y-97700000D02*
X59800000Y-98110000D01*
D21*
X55450000Y-33240000D02*
X105960000Y-33240000D01*
X105960000Y-33240000D02*
X112680000Y-39960000D01*
X53440000Y-57520000D02*
X53440000Y-35250000D01*
X53440000Y-35250000D02*
X55450000Y-33240000D01*
D19*
X79328000Y-69164000D02*
X81914000Y-69164000D01*
X79308000Y-69184000D02*
X79328000Y-69164000D01*
X83816000Y-69164000D02*
X81914000Y-69164000D01*
X83920000Y-69060000D02*
X83816000Y-69164000D01*
X83920000Y-57520000D02*
X83920000Y-69060000D01*
X79328000Y-100764000D02*
X79308000Y-100784000D01*
X80446000Y-100764000D02*
X79328000Y-100764000D01*
X87890000Y-93320000D02*
X80446000Y-100764000D01*
X87890000Y-73220000D02*
X87890000Y-93320000D01*
X83834000Y-69164000D02*
X87890000Y-73220000D01*
X81914000Y-69164000D02*
X83834000Y-69164000D01*
X102168000Y-69164000D02*
X95136000Y-69164000D01*
X91080000Y-73220000D02*
X87890000Y-73220000D01*
X95136000Y-69164000D02*
X91080000Y-73220000D01*
X42300000Y-59620000D02*
X36834000Y-65086000D01*
X52310000Y-59620000D02*
X42300000Y-59620000D01*
X36834000Y-65086000D02*
X36834000Y-67082000D01*
X53440000Y-58490000D02*
X52310000Y-59620000D01*
X53440000Y-57520000D02*
X53440000Y-58490000D01*
X92240000Y-57520000D02*
X83920000Y-57520000D01*
X94080000Y-55680000D02*
X92240000Y-57520000D01*
X94080000Y-54980000D02*
X94080000Y-55680000D01*
X49640000Y-113700000D02*
X41720000Y-121620000D01*
X49640000Y-97700000D02*
X49640000Y-113700000D01*
X35500000Y-121620000D02*
X35390000Y-121730000D01*
X41720000Y-121620000D02*
X35500000Y-121620000D01*
X42560000Y-122460000D02*
X41720000Y-121620000D01*
X42560000Y-124500000D02*
X42560000Y-122460000D01*
X46760000Y-128700000D02*
X42560000Y-124500000D01*
X46860000Y-128700000D02*
X46760000Y-128700000D01*
X46900000Y-128660000D02*
X46860000Y-128700000D01*
X105550000Y-128660000D02*
X46900000Y-128660000D01*
X105560000Y-128670000D02*
X105550000Y-128660000D01*
D20*
X100354000Y-108384000D02*
X102168000Y-108384000D01*
X95260000Y-79420000D02*
X95260000Y-103290000D01*
X95260000Y-103290000D02*
X100354000Y-108384000D01*
X97896000Y-76784000D02*
X95260000Y-79420000D01*
X102168000Y-76784000D02*
X97896000Y-76784000D01*
X100794000Y-105844000D02*
X102168000Y-105844000D01*
X97340000Y-80230000D02*
X97340000Y-102390000D01*
X97340000Y-102390000D02*
X100794000Y-105844000D01*
X99510000Y-78060000D02*
X97340000Y-80230000D01*
X103050000Y-78060000D02*
X99510000Y-78060000D01*
X103850000Y-77260000D02*
X103050000Y-78060000D01*
X103850000Y-75070000D02*
X103850000Y-77260000D01*
X103024000Y-74244000D02*
X103850000Y-75070000D01*
X102168000Y-74244000D02*
X103024000Y-74244000D01*
X104490000Y-95770000D02*
X104490000Y-108602000D01*
X99950000Y-80240000D02*
X99950000Y-91230000D01*
X99950000Y-91230000D02*
X104490000Y-95770000D01*
X100866000Y-79324000D02*
X99950000Y-80240000D01*
X104490000Y-108602000D02*
X102168000Y-110924000D01*
X102168000Y-79324000D02*
X100866000Y-79324000D01*
X51486000Y-62590000D02*
X46994000Y-67082000D01*
X53870000Y-62590000D02*
X51486000Y-62590000D01*
X55880000Y-60580000D02*
X53870000Y-62590000D01*
X69250000Y-60580000D02*
X55880000Y-60580000D01*
X71220000Y-58610000D02*
X69250000Y-60580000D01*
X71220000Y-57520000D02*
X71220000Y-58610000D01*
X33400000Y-64210000D02*
X33400000Y-67550000D01*
X50839998Y-46770002D02*
X33400000Y-64210000D01*
X55120000Y-63680000D02*
X52936000Y-63680000D01*
X71260000Y-61800000D02*
X57000000Y-61800000D01*
X72470000Y-60590000D02*
X71260000Y-61800000D01*
X72470000Y-45620000D02*
X72470000Y-60590000D01*
X52936000Y-63680000D02*
X49534000Y-67082000D01*
X76250000Y-41840000D02*
X72470000Y-45620000D01*
X86890000Y-41840000D02*
X76250000Y-41840000D01*
X57000000Y-61800000D02*
X55120000Y-63680000D01*
X87700000Y-41030000D02*
X86890000Y-41840000D01*
X92790000Y-41030000D02*
X87700000Y-41030000D01*
X94080000Y-39740000D02*
X92790000Y-41030000D01*
X91540000Y-39740000D02*
X92840000Y-38440000D01*
X92840000Y-38440000D02*
X95690000Y-38440000D01*
X95690000Y-38440000D02*
X99940000Y-42690000D01*
X99940000Y-42690000D02*
X99940000Y-61030000D01*
X92210000Y-101500000D02*
X86570000Y-107140000D01*
X95540000Y-44820000D02*
X96330000Y-45610000D01*
X96330000Y-45610000D02*
X96330000Y-62360000D01*
X96330000Y-62360000D02*
X99380000Y-65410000D01*
X104730000Y-72980000D02*
X97190000Y-72980000D01*
X71140000Y-107140000D02*
X64880000Y-100880000D01*
X99380000Y-65410000D02*
X104230000Y-65410000D01*
X104230000Y-65410000D02*
X106060000Y-67240000D01*
X86570000Y-107140000D02*
X71140000Y-107140000D01*
X106060000Y-67240000D02*
X106060000Y-71650000D01*
X64880000Y-100880000D02*
X64880000Y-97700000D01*
X94080000Y-44820000D02*
X95540000Y-44820000D01*
X97190000Y-72980000D02*
X92210000Y-77960000D01*
X106060000Y-71650000D02*
X104730000Y-72980000D01*
X92210000Y-77960000D02*
X92210000Y-101500000D01*
X107230000Y-78380000D02*
X103746000Y-81864000D01*
X107230000Y-66080000D02*
X107230000Y-78380000D01*
X104810000Y-63660000D02*
X107230000Y-66080000D01*
X99780000Y-63660000D02*
X104810000Y-63660000D01*
X98010000Y-61890000D02*
X99780000Y-63660000D01*
X98010000Y-44150000D02*
X98010000Y-61890000D01*
X103746000Y-81864000D02*
X102168000Y-81864000D01*
X96140000Y-42280000D02*
X98010000Y-44150000D01*
X94080000Y-42280000D02*
X96140000Y-42280000D01*
X49020000Y-50670000D02*
X34800000Y-64890000D01*
X34800000Y-64890000D02*
X34800000Y-72340000D01*
X57630002Y-62959998D02*
X71440000Y-62959998D01*
X55660000Y-64930000D02*
X57630002Y-62959998D01*
X53640000Y-64930000D02*
X55660000Y-64930000D01*
X52074000Y-66496000D02*
X53640000Y-64930000D01*
X52074000Y-67082000D02*
X52074000Y-66496000D01*
X72740002Y-62959998D02*
X71440000Y-62959998D01*
X75100000Y-45550000D02*
X75100000Y-60600000D01*
X75100000Y-60600000D02*
X72740002Y-62959998D01*
X77280000Y-43370000D02*
X75100000Y-45550000D01*
X83240000Y-43370000D02*
X77280000Y-43370000D01*
X85920000Y-46050000D02*
X83240000Y-43370000D01*
X92770000Y-46050000D02*
X85920000Y-46050000D01*
X94080000Y-47360000D02*
X92770000Y-46050000D01*
X106310000Y-113010000D02*
X103316000Y-116004000D01*
X106310000Y-86880000D02*
X106310000Y-113010000D01*
X103316000Y-116004000D02*
X102168000Y-116004000D01*
X103834000Y-84404000D02*
X106310000Y-86880000D01*
X102168000Y-84404000D02*
X103834000Y-84404000D01*
X41914000Y-89942000D02*
X47462000Y-95490000D01*
X54720000Y-95920000D02*
X54290000Y-95490000D01*
X54720000Y-97700000D02*
X54720000Y-95920000D01*
X47462000Y-95490000D02*
X54290000Y-95490000D01*
X83564000Y-74264000D02*
X79308000Y-74264000D01*
X86190000Y-90250000D02*
X86190000Y-76890000D01*
X86190000Y-76890000D02*
X83564000Y-74264000D01*
X80950000Y-95490000D02*
X84050000Y-92390000D01*
X84050000Y-92390000D02*
X86190000Y-90250000D01*
X79308000Y-105864000D02*
X77104000Y-105864000D01*
X76310000Y-105070000D02*
X76310000Y-95490000D01*
X76310000Y-95490000D02*
X80950000Y-95490000D01*
X77104000Y-105864000D02*
X76310000Y-105070000D01*
X54290000Y-95490000D02*
X76310000Y-95490000D01*
X82289999Y-45819997D02*
X81500000Y-45029998D01*
X82289999Y-61810001D02*
X82289999Y-45819997D01*
X77610000Y-66490000D02*
X82289999Y-61810001D01*
X77610000Y-72566000D02*
X77610000Y-66490000D01*
X79308000Y-74264000D02*
X77610000Y-72566000D01*
X82074000Y-76804000D02*
X79308000Y-76804000D01*
X84590000Y-79320000D02*
X82074000Y-76804000D01*
X84590000Y-89860000D02*
X84590000Y-79320000D01*
X80010000Y-94440000D02*
X84590000Y-89860000D01*
X48952000Y-94440000D02*
X80010000Y-94440000D01*
X44454000Y-89942000D02*
X48952000Y-94440000D01*
X80060000Y-48590000D02*
X77870000Y-46400000D01*
X77870000Y-46400000D02*
X77870000Y-44950000D01*
X76910000Y-62800000D02*
X80060000Y-59650000D01*
X76910000Y-74406000D02*
X76910000Y-62800000D01*
X80060000Y-59650000D02*
X80060000Y-48590000D01*
X79308000Y-76804000D02*
X76910000Y-74406000D01*
X52074000Y-81554000D02*
X52074000Y-89942000D01*
X45720000Y-75200000D02*
X52074000Y-81554000D01*
X45720000Y-64980000D02*
X45720000Y-75200000D01*
X52680000Y-61470000D02*
X49230000Y-61470000D01*
X54790000Y-59360000D02*
X52680000Y-61470000D01*
X54790000Y-55990000D02*
X54790000Y-59360000D01*
X49230000Y-61470000D02*
X45720000Y-64980000D01*
X58520000Y-52260000D02*
X54790000Y-55990000D01*
X58520000Y-37200000D02*
X58520000Y-52260000D01*
X61060000Y-38560000D02*
X61060000Y-37200000D01*
X62790000Y-40290000D02*
X61060000Y-38560000D01*
X79510000Y-40290000D02*
X62790000Y-40290000D01*
X63600000Y-38630000D02*
X63600000Y-37200000D01*
X64140000Y-39170000D02*
X63600000Y-38630000D01*
X75195000Y-39170000D02*
X64140000Y-39170000D01*
X75740000Y-39715000D02*
X75195000Y-39170000D01*
X46994000Y-89942000D02*
X50492000Y-93440000D01*
X50492000Y-93440000D02*
X79140000Y-93440000D01*
X79140000Y-93440000D02*
X83330000Y-89250000D01*
X83330000Y-89250000D02*
X83330000Y-81710000D01*
X80964000Y-79344000D02*
X79308000Y-79344000D01*
X83330000Y-81710000D02*
X80964000Y-79344000D01*
X81380000Y-60920000D02*
X81380000Y-57520000D01*
X78160000Y-64140000D02*
X81380000Y-60920000D01*
X80574000Y-81884000D02*
X79308000Y-81884000D01*
X82160000Y-83470000D02*
X80574000Y-81884000D01*
X82160000Y-89210000D02*
X82160000Y-83470000D01*
X78725496Y-92644504D02*
X82160000Y-89210000D01*
X52236504Y-92644504D02*
X78725496Y-92644504D01*
X49534000Y-89942000D02*
X52236504Y-92644504D01*
X76254830Y-61295170D02*
X78840000Y-58710000D01*
X78840000Y-58710000D02*
X78840000Y-57520000D01*
X76254830Y-78830830D02*
X76254830Y-61295170D01*
X79308000Y-81884000D02*
X76254830Y-78830830D01*
D22*
X103150000Y-67220000D02*
X92200000Y-67220000D01*
X102168000Y-71704000D02*
X104040000Y-69832000D01*
X104040000Y-69832000D02*
X104040000Y-68110000D01*
X104040000Y-68110000D02*
X103150000Y-67220000D01*
X92200000Y-67220000D02*
X89960000Y-69460000D01*
D23*
X114016357Y-120965750D02*
X114124786Y-121010663D01*
X114217893Y-121082107D01*
X114289337Y-121175214D01*
X114334250Y-121283643D01*
X114350000Y-121403275D01*
X114350000Y-129266208D01*
X114334229Y-129385922D01*
X114289262Y-129494405D01*
X114217729Y-129587545D01*
X114124520Y-129658978D01*
X114015985Y-129703838D01*
X113896264Y-129719486D01*
X105103951Y-129710514D01*
X104984238Y-129694617D01*
X104875789Y-129649527D01*
X104782716Y-129577883D01*
X104711377Y-129484575D01*
X104666641Y-129375977D01*
X104651137Y-129256218D01*
X104668867Y-121402258D01*
X104684842Y-121282824D01*
X104729872Y-121174631D01*
X104801338Y-121081747D01*
X104894379Y-121010492D01*
X105002681Y-120965704D01*
X105122142Y-120950000D01*
X113896725Y-120950000D01*
X114016357Y-120965750D01*
G04 #@! TA.AperFunction,Conductor*
G36*
X114016357Y-120965750D02*
G01*
X114124786Y-121010663D01*
X114217893Y-121082107D01*
X114289337Y-121175214D01*
X114334250Y-121283643D01*
X114350000Y-121403275D01*
X114350000Y-129266208D01*
X114334229Y-129385922D01*
X114289262Y-129494405D01*
X114217729Y-129587545D01*
X114124520Y-129658978D01*
X114015985Y-129703838D01*
X113896264Y-129719486D01*
X105103951Y-129710514D01*
X104984238Y-129694617D01*
X104875789Y-129649527D01*
X104782716Y-129577883D01*
X104711377Y-129484575D01*
X104666641Y-129375977D01*
X104651137Y-129256218D01*
X104668867Y-121402258D01*
X104684842Y-121282824D01*
X104729872Y-121174631D01*
X104801338Y-121081747D01*
X104894379Y-121010492D01*
X105002681Y-120965704D01*
X105122142Y-120950000D01*
X113896725Y-120950000D01*
X114016357Y-120965750D01*
G37*
G04 #@! TD.AperFunction*
M02*
