M48
; DRILL file {KiCad 5.1.9-73d0e3b20d~88~ubuntu20.04.1} date Fri Mar 19 21:26:40 2021
; FORMAT={-:-/ absolute / inch / decimal}
; #@! TF.CreationDate,2021-03-19T21:26:40+02:00
; #@! TF.GenerationSoftware,Kicad,Pcbnew,5.1.9-73d0e3b20d~88~ubuntu20.04.1
; #@! TF.FileFunction,Plated,1,2,PTH
FMAT,2
INCH
T1C0.0118
T2C0.0157
T3C0.0315
T4C0.0394
T5C0.1000
%
G90
G05
T1
X1.315Y-2.6594
X1.3701Y-2.848
X1.9299Y-1.9949
X2.0016Y-1.8413
X2.8126Y-2.4787
X2.9819Y-1.5636
X3.0657Y-1.7697
X3.0772Y-2.5252
X3.1303Y-1.5862
X3.2087Y-1.7728
X3.5417Y-2.7346
X3.9346Y-2.4028
X4.4362Y-1.5732
T2
X4.1417Y-4.8224
X4.3854Y-5.0657
X4.3894Y-4.9004
X4.3909Y-4.9689
X4.4642Y-4.9681
X4.4654Y-4.9
T3
X1.5772Y-4.9016
X1.6756Y-4.9016
X1.8039Y-2.2646
X1.9039Y-2.2646
X2.0039Y-2.2646
X2.1039Y-2.2646
X2.2039Y-1.4646
X2.2039Y-2.2646
X2.3039Y-1.4646
X2.3039Y-2.2646
X2.4039Y-1.4646
X2.4039Y-2.2646
X2.5039Y-1.4646
X2.5039Y-2.2646
X2.6039Y-1.4646
X2.6039Y-2.2646
X2.7039Y-1.4646
X2.7039Y-2.2646
X2.8039Y-1.4646
X2.8039Y-2.2646
X2.9039Y-1.4646
X2.9039Y-2.2646
X3.0039Y-1.4646
X3.0039Y-2.2646
X3.1039Y-1.4646
X3.1039Y-2.2646
X3.2039Y-1.4646
X3.2039Y-2.2646
X3.3039Y-1.4646
X3.3039Y-2.2646
X3.6039Y-1.4646
X3.6039Y-1.5646
X3.6039Y-1.6646
X3.6039Y-1.7646
X3.6039Y-1.8646
X3.6039Y-1.9646
X3.6039Y-2.0646
X3.6039Y-2.1646
X3.7039Y-1.4646
X3.7039Y-1.5646
X3.7039Y-1.6646
X3.7039Y-1.7646
X3.7039Y-1.8646
X3.7039Y-1.9646
X3.7039Y-2.0646
X3.7039Y-2.1646
T4
X1.2933Y-4.7925
X1.3933Y-4.7925
X1.4502Y-2.641
X1.4502Y-3.541
X1.5502Y-2.641
X1.5502Y-3.541
X1.6502Y-2.641
X1.6502Y-3.541
X1.7502Y-2.641
X1.7502Y-3.541
X1.8502Y-2.641
X1.8502Y-3.541
X1.8543Y-3.8465
X1.9502Y-2.641
X1.9502Y-3.541
X1.9543Y-3.8465
X2.0502Y-2.641
X2.0502Y-3.541
X2.0543Y-3.8465
X2.1502Y-2.641
X2.1502Y-3.541
X2.1543Y-3.8465
X2.2543Y-3.8465
X2.3543Y-3.8465
X2.4543Y-3.8465
X2.5543Y-3.8465
X2.6543Y-3.8465
X2.7543Y-3.8465
X2.8543Y-3.8465
X3.1224Y-2.7238
X3.1224Y-2.8238
X3.1224Y-2.9238
X3.1224Y-3.0238
X3.1224Y-3.1238
X3.1224Y-3.2238
X3.1224Y-3.3238
X3.1224Y-3.4238
X3.1224Y-3.9679
X3.1224Y-4.0679
X3.1224Y-4.1679
X3.1224Y-4.2679
X3.1224Y-4.3679
X3.1224Y-4.4679
X3.1224Y-4.5679
X3.1224Y-4.6679
X4.0224Y-2.723
X4.0224Y-2.823
X4.0224Y-2.923
X4.0224Y-3.023
X4.0224Y-3.123
X4.0224Y-3.223
X4.0224Y-3.323
X4.0224Y-3.423
X4.0224Y-3.9671
X4.0224Y-4.0671
X4.0224Y-4.1671
X4.0224Y-4.2671
X4.0224Y-4.3671
X4.0224Y-4.4671
X4.0224Y-4.5671
X4.0224Y-4.6671
T5
X1.2998Y-1.2983
X1.2998Y-4.9991
X1.4179Y-3.9439
X1.4179Y-4.3376
X5.0006Y-1.2983
X5.0006Y-4.9991
T0
M30
