G04 #@! TF.GenerationSoftware,KiCad,Pcbnew,5.1.9-73d0e3b20d~88~ubuntu20.04.1*
G04 #@! TF.CreationDate,2021-03-19T21:26:38+02:00*
G04 #@! TF.ProjectId,QuickFeather-Enviroment-Monitor,51756963-6b46-4656-9174-6865722d456e,rev?*
G04 #@! TF.SameCoordinates,Original*
G04 #@! TF.FileFunction,Legend,Bot*
G04 #@! TF.FilePolarity,Positive*
%FSLAX46Y46*%
G04 Gerber Fmt 4.6, Leading zero omitted, Abs format (unit mm)*
G04 Created by KiCad (PCBNEW 5.1.9-73d0e3b20d~88~ubuntu20.04.1) date 2021-03-19 21:26:38*
%MOMM*%
%LPD*%
G01*
G04 APERTURE LIST*
%ADD10C,0.150000*%
G04 APERTURE END LIST*
D10*
X125572380Y-76370952D02*
X126286666Y-76370952D01*
X126429523Y-76323333D01*
X126524761Y-76228095D01*
X126572380Y-76085238D01*
X126572380Y-75990000D01*
X126572380Y-77323333D02*
X126572380Y-76847142D01*
X125572380Y-76847142D01*
X126477142Y-78228095D02*
X126524761Y-78180476D01*
X126572380Y-78037619D01*
X126572380Y-77942380D01*
X126524761Y-77799523D01*
X126429523Y-77704285D01*
X126334285Y-77656666D01*
X126143809Y-77609047D01*
X126000952Y-77609047D01*
X125810476Y-77656666D01*
X125715238Y-77704285D01*
X125620000Y-77799523D01*
X125572380Y-77942380D01*
X125572380Y-78037619D01*
X125620000Y-78180476D01*
X125667619Y-78228095D01*
X125572380Y-78942380D02*
X126286666Y-78942380D01*
X126429523Y-78894761D01*
X126524761Y-78799523D01*
X126572380Y-78656666D01*
X126572380Y-78561428D01*
X126572380Y-79894761D02*
X126572380Y-79418571D01*
X125572380Y-79418571D01*
X126477142Y-80799523D02*
X126524761Y-80751904D01*
X126572380Y-80609047D01*
X126572380Y-80513809D01*
X126524761Y-80370952D01*
X126429523Y-80275714D01*
X126334285Y-80228095D01*
X126143809Y-80180476D01*
X126000952Y-80180476D01*
X125810476Y-80228095D01*
X125715238Y-80275714D01*
X125620000Y-80370952D01*
X125572380Y-80513809D01*
X125572380Y-80609047D01*
X125620000Y-80751904D01*
X125667619Y-80799523D01*
X125572380Y-81513809D02*
X126286666Y-81513809D01*
X126429523Y-81466190D01*
X126524761Y-81370952D01*
X126572380Y-81228095D01*
X126572380Y-81132857D01*
X126572380Y-82466190D02*
X126572380Y-81990000D01*
X125572380Y-81990000D01*
X126477142Y-83370952D02*
X126524761Y-83323333D01*
X126572380Y-83180476D01*
X126572380Y-83085238D01*
X126524761Y-82942380D01*
X126429523Y-82847142D01*
X126334285Y-82799523D01*
X126143809Y-82751904D01*
X126000952Y-82751904D01*
X125810476Y-82799523D01*
X125715238Y-82847142D01*
X125620000Y-82942380D01*
X125572380Y-83085238D01*
X125572380Y-83180476D01*
X125620000Y-83323333D01*
X125667619Y-83370952D01*
X125572380Y-84085238D02*
X126286666Y-84085238D01*
X126429523Y-84037619D01*
X126524761Y-83942380D01*
X126572380Y-83799523D01*
X126572380Y-83704285D01*
X126572380Y-85037619D02*
X126572380Y-84561428D01*
X125572380Y-84561428D01*
X126477142Y-85942380D02*
X126524761Y-85894761D01*
X126572380Y-85751904D01*
X126572380Y-85656666D01*
X126524761Y-85513809D01*
X126429523Y-85418571D01*
X126334285Y-85370952D01*
X126143809Y-85323333D01*
X126000952Y-85323333D01*
X125810476Y-85370952D01*
X125715238Y-85418571D01*
X125620000Y-85513809D01*
X125572380Y-85656666D01*
X125572380Y-85751904D01*
X125620000Y-85894761D01*
X125667619Y-85942380D01*
M02*
